<?xml version="1.0" encoding="UTF-8"?>
<svg version="1.1" xmlns="http://www.w3.org/2000/svg" width="1920" height="778">
<path d="M0 0 C633.6 0 1267.2 0 1920 0 C1920 256.74 1920 513.48 1920 778 C1286.4 778 652.8 778 0 778 C0 521.26 0 264.52 0 0 Z " fill="#000000" transform="translate(0,0)"/>
<path d="M0 0 C3.45653209 3.45653209 4.80410409 6.10260228 5 11 C4.34 13.31 3.68 15.62 3 18 C-6.24 18 -15.48 18 -25 18 C-24.67 20.64 -24.34 23.28 -24 26 C-19.55208728 28.96527515 -15.21671137 28.7709057 -10 28 C-7.63441571 26.58851831 -6.01658954 24.92056147 -4 23 C-1.125 22.6875 -1.125 22.6875 1 23 C-0.31771215 27.18818779 -1.72726648 28.93491176 -5.4375 31.25 C-6.21996094 31.75015625 -7.00242187 32.2503125 -7.80859375 32.765625 C-12.07688628 35.16986821 -16.19391364 35.62726495 -21 35 C-26.34622079 33.11373259 -29.33498098 30.02253585 -32 25 C-33.95250807 18.20572337 -31.40377869 11.70728748 -28.25 5.625 C-21.02523152 -2.80389656 -9.90207177 -6.67814143 0 0 Z " fill="#090707" transform="translate(1678,491)"/>
<path d="M0 0 C3.11687171 3.76174172 4.19251854 8.15953374 4 13 C3.34 14.65 2.68 16.3 2 18 C-7.24 18 -16.48 18 -26 18 C-24.99779798 25.82062059 -24.99779798 25.82062059 -21 28 C-17.00614083 28.65304066 -12.72679188 29.06808032 -9.1875 26.87890625 C-7.78676396 25.59125046 -6.39310315 24.29590991 -5 23 C-2.125 22.6875 -2.125 22.6875 0 23 C-0.82975219 28.04401986 -4.03947903 30.11653719 -8 33 C-12.12062077 35.32445274 -16.35556714 35.69154239 -21 35 C-25.10597185 33.64356287 -28.08494872 32.22286029 -30.70703125 28.71875 C-33.41430684 23.02611008 -32.8044775 15.73434448 -31.0625 9.75 C-28.8570562 4.716523 -24.50129139 0.99836852 -20 -2 C-13.16653549 -3.92357244 -5.98508795 -4.13256073 0 0 Z " fill="#090607" transform="translate(1612,491)"/>
<path d="M0 0 C0.99 0.33 1.98 0.66 3 1 C3.08333357 5.8333472 2.95261487 10.23692563 2 15 C2.969375 14.67 3.93875 14.34 4.9375 14 C10.34185881 12.47625583 15.65669193 11.9811704 20.875 14.25 C24.0926582 16.89983617 25.85451947 18.69413903 26.328125 22.9453125 C26.28945312 24.51925781 26.28945312 24.51925781 26.25 26.125 C26.23453125 27.17945313 26.2190625 28.23390625 26.203125 29.3203125 C26 32 26 32 25 34 C24.47527972 37.59808195 24.03773075 41.20314945 23.59765625 44.8125 C23 48 23 48 21 50 C18.375 50.125 18.375 50.125 16 50 C15.83282478 45.48626912 16.00864571 41.53722475 17 37.125 C18.08228937 32.13100764 18.66641759 27.09613448 18 22 C15.52964288 19.52964288 14.6039993 19.64957719 11.1875 19.5625 C7.6305219 19.6701319 6.18634685 19.88898486 3.0625 21.75 C-1.41828359 28.81062869 -2.23312769 37.54896504 -3.27734375 45.72265625 C-4.1892866 48.59650858 -5.47846872 49.44632921 -8 51 C-8.99 50.34 -9.98 49.68 -11 49 C-10.85904936 47.3745692 -10.71207913 45.74965949 -10.5625 44.125 C-10.48128906 43.22007812 -10.40007812 42.31515625 -10.31640625 41.3828125 C-10 39 -10 39 -9 37 C-8.50930722 34.106095 -8.05547451 31.21538572 -7.625 28.3125 C-6.65423685 22.02884096 -5.66912492 15.75020132 -4.5 9.5 C-4.2834375 8.3140625 -4.066875 7.128125 -3.84375 5.90625 C-3.00108613 3.00374113 -2.34925192 1.82719594 0 0 Z " fill="#0D0A0A" transform="translate(1547,475)"/>
<path d="M0 0 C1.32 0.66 2.64 1.32 4 2 C3.67 6.29 3.34 10.58 3 15 C3.969375 14.67 4.93875 14.34 5.9375 14 C10.79360078 12.6532676 16.1727862 11.54428566 20.8359375 13.9453125 C24.12225573 16.49421298 26.18826911 18.94134556 27 23 C26.9753157 29.24512692 25.61841314 35.43811594 24.5 41.5625 C24.36956299 42.27768799 24.23912598 42.99287598 24.10473633 43.72973633 C23.12326111 48.87673889 23.12326111 48.87673889 22 50 C20.33382885 50.04063832 18.66611905 50.042721 17 50 C15.66868599 47.33737198 16.17199945 45.8795212 16.62890625 42.94921875 C16.77650391 41.94052734 16.92410156 40.93183594 17.07617188 39.89257812 C17.39874149 37.76672774 17.72681171 35.64170426 18.06054688 33.51757812 C18.20685547 32.50501953 18.35316406 31.49246094 18.50390625 30.44921875 C18.64642822 29.52455811 18.7889502 28.59989746 18.93579102 27.6472168 C19.00913628 24.6233284 18.29287454 22.70790322 17 20 C15.27305325 19.86390087 13.54295278 19.76750772 11.8125 19.6875 C10.84957031 19.62949219 9.88664062 19.57148438 8.89453125 19.51171875 C5.87986771 19.82304095 5.87986771 19.82304095 3.29296875 21.7578125 C-0.65024846 27.33340071 -0.98274616 33.90198022 -2.02734375 40.53710938 C-2.21425781 41.59091797 -2.40117188 42.64472656 -2.59375 43.73046875 C-2.82094727 45.17522583 -2.82094727 45.17522583 -3.05273438 46.64916992 C-4 49 -4 49 -6.58789062 50.3293457 C-7.38388672 50.55066162 -8.17988281 50.77197754 -9 51 C-11.2265097 47.49623148 -11.03104287 45.38366834 -10.2421875 41.37109375 C-10.03053955 40.26169434 -9.8188916 39.15229492 -9.60083008 38.00927734 C-9.36130615 36.83059082 -9.12178223 35.6519043 -8.875 34.4375 C-8.63998779 33.23561035 -8.40497559 32.0337207 -8.1628418 30.79541016 C-7.68285148 28.35598727 -7.19646445 25.91781411 -6.70361328 23.48095703 C-6.06720292 20.33247022 -5.4503376 17.18093447 -4.83984375 14.02734375 C-4.49884682 12.30960715 -4.1565003 10.59213765 -3.8125 8.875 C-3.6582959 8.08279053 -3.5040918 7.29058105 -3.34521484 6.47436523 C-2.96305273 4.63456311 -2.49096938 2.81379955 -2 1 C-1.34 0.67 -0.68 0.34 0 0 Z " fill="#0A0707" transform="translate(1067,475)"/>
<path d="M0 0 C-0.06058594 0.70382812 -0.12117188 1.40765625 -0.18359375 2.1328125 C-0.46264554 5.4213305 -0.73155058 8.71059979 -1 12 C-1.10699219 13.25683594 -1.21398438 14.51367188 -1.32421875 15.80859375 C-1.42347656 17.04738281 -1.52273438 18.28617187 -1.625 19.5625 C-1.76808594 21.29693359 -1.76808594 21.29693359 -1.9140625 23.06640625 C-2.17011311 26.0627794 -2.17011311 26.0627794 -1 29 C2.46996232 30.73498116 6.21507195 30.60794181 10 30 C13.02409364 27.72872666 13.02409364 27.72872666 15 25 C15.33 24.67 15.66 24.34 16 24 C16.3435227 22.3219878 16.63467591 20.63317654 16.90234375 18.94140625 C17.07056641 17.91595703 17.23878906 16.89050781 17.41210938 15.83398438 C17.76166039 13.65741204 18.10802831 11.48032606 18.45117188 9.30273438 C18.62068359 8.27599609 18.79019531 7.24925781 18.96484375 6.19140625 C19.1155835 5.24467041 19.26632324 4.29793457 19.42163086 3.32250977 C20 1 20 1 22 -1 C24.625 -0.625 24.625 -0.625 27 0 C26.29554484 6.99371461 25.25901518 13.88694559 24.0625 20.8125 C23.89298828 21.83537109 23.72347656 22.85824219 23.54882812 23.91210938 C23.29456055 25.3884082 23.29456055 25.3884082 23.03515625 26.89453125 C22.8844165 27.77987549 22.73367676 28.66521973 22.57836914 29.57739258 C22.0001337 31.99943998 21.30839133 33.88354618 20 36 C17.875 36.75 17.875 36.75 16 37 C15.67 36.01 15.34 35.02 15 34 C14.18208984 34.34224609 14.18208984 34.34224609 13.34765625 34.69140625 C7.6919224 36.84735266 2.89217692 37.835087 -3 36 C-6.50568724 33.95685314 -8.68817159 31.93548522 -10 28 C-9.95289299 18.60215148 -9.02289903 8.93852442 -6 0 C-3.50907189 -1.24546405 -2.58919267 -0.7767578 0 0 Z " fill="#0A0707" transform="translate(1245,489)"/>
<path d="M0 0 C2.625 0.375 2.625 0.375 5 1 C4.855625 1.969375 4.71125 2.93875 4.5625 3.9375 C4.3729565 5.29138215 4.18560673 6.64557254 4 8 C3.85691406 9.01320313 3.85691406 9.01320313 3.7109375 10.046875 C2.91256574 16.29698537 2.42151663 22.71512139 3 29 C5.37160148 31.37160148 6.00621122 31.31983352 9.25 31.375 C10.37148438 31.41753906 10.37148438 31.41753906 11.515625 31.4609375 C15.28177215 30.76218693 17.15496361 29.59136373 20 27 C21.27490412 23.78479763 21.79351854 20.5340441 22.3125 17.125 C22.46783203 16.23941406 22.62316406 15.35382813 22.78320312 14.44140625 C23.21329905 11.9642014 23.61125399 9.48397651 24 7 C24.33333333 5 24.66666667 3 25 1 C29.75 -0.125 29.75 -0.125 32 1 C31.40629289 4.93914918 30.79807855 8.87593357 30.1875 12.8125 C30.02185547 13.91271484 29.85621094 15.01292969 29.68554688 16.14648438 C27.24689155 31.744676 27.24689155 31.744676 25 37 C23.515 37.495 23.515 37.495 22 38 C21.01 37.34 20.02 36.68 19 36 C16.15879766 36.35515029 13.71952248 37.09349251 11 38 C5.28407456 38.53923825 2.44197671 37.63434458 -2 34 C-5.4001454 30.19794616 -5.37892622 27.57763412 -5.234375 22.6484375 C-4.94816148 19.41422469 -4.30335644 16.38408263 -3.50390625 13.2421875 C-2.80500454 10.13234577 -2.56774766 7.02282307 -2.34375 3.84765625 C-2 2 -2 2 0 0 Z " fill="#0A0707" transform="translate(844,488)"/>
<path d="M0 0 C0.763125 0.20625 1.52625 0.4125 2.3125 0.625 C0.57648696 9.80370722 0.57648696 9.80370722 -0.8125 14.125 C-1.91845221 18.54880883 -2.61828608 23.1130539 -1.6875 27.625 C1.07637893 30.38280447 2.23362788 30.61748837 6.25 31 C9.98912422 30.84681428 12.36810902 30.04979257 15.3125 27.625 C17.0936874 24.64849934 17.7586747 21.89858394 18.3125 18.4921875 C18.4775 17.52152344 18.6425 16.55085938 18.8125 15.55078125 C19.14708031 13.50931856 19.48040451 11.46764963 19.8125 9.42578125 C19.9775 8.45769531 20.1425 7.48960937 20.3125 6.4921875 C20.456875 5.60644043 20.60125 4.72069336 20.75 3.80810547 C21.3125 1.625 21.3125 1.625 23.3125 -0.375 C25.9375 0 25.9375 0 28.3125 0.625 C27.80072823 4.19393474 27.25195126 7.75603135 26.68066406 11.31591797 C26.41229537 12.99909509 26.14936124 14.68314136 25.88964844 16.36767578 C25.42404691 19.35256709 24.932809 22.332407 24.4375 25.3125 C24.21368652 26.78323975 24.21368652 26.78323975 23.98535156 28.28369141 C23.82776367 29.20456543 23.67017578 30.12543945 23.5078125 31.07421875 C23.37391113 31.90268311 23.24000977 32.73114746 23.10205078 33.5847168 C22.3125 35.625 22.3125 35.625 20.23779297 36.90942383 C19.60244629 37.14556396 18.96709961 37.3817041 18.3125 37.625 C17.3225 36.965 16.3325 36.305 15.3125 35.625 C12.47129766 35.98015029 10.03202248 36.71849251 7.3125 37.625 C1.23214494 38.20964952 -1.86126629 37.12638524 -6.6875 33.625 C-9.02115968 29.46043048 -8.82518997 25.61823325 -8.4375 21 C-8.3844873 20.29794434 -8.33147461 19.59588867 -8.27685547 18.87255859 C-7.23488458 6.16283567 -7.23488458 6.16283567 -5.6875 1.625 C-2.6875 -0.375 -2.6875 -0.375 0 0 Z " fill="#0A0707" transform="translate(1176.6875,488.375)"/>
<path d="M0 0 C0.639375 0.33 1.27875 0.66 1.9375 1 C1.9375 1.66 1.9375 2.32 1.9375 3 C2.5975 3 3.2575 3 3.9375 3 C5.3981285 5.64738916 5.9375 6.89448334 5.9375 10 C4.2875 10.33 2.6375 10.66 0.9375 11 C0.6075 10.195625 0.2775 9.39125 -0.0625 8.5625 C-2.27288415 5.73044531 -2.69657081 5.55748959 -6.0625 5.0625 C-9.50815781 4.70357731 -9.96962019 4.93808013 -13.0625 7 C-13.31265873 10.58357241 -13.31265873 10.58357241 -13.0625 14 C-12.19625 14.103125 -11.33 14.20625 -10.4375 14.3125 C-6.89566877 15.03398414 -4.21937958 16.27123261 -1.0625 18 C-1.0625 18.66 -1.0625 19.32 -1.0625 20 C-0.0725 20.33 0.9175 20.66 1.9375 21 C3.9375 24 3.9375 24 3.75 26.375 C2.30720241 31.03634606 1.0853956 33.34727505 -3.25 35.8125 C-8.09689583 37.32218887 -12.24520491 38.17663501 -17.0546875 36.16796875 C-19.69889552 34.70323111 -21.92411206 33.13838794 -24.0625 31 C-24.1875 28.375 -24.1875 28.375 -24.0625 26 C-22.7425 25.67 -21.4225 25.34 -20.0625 25 C-19.60875 25.825 -19.155 26.65 -18.6875 27.5 C-15.65960761 30.38370704 -14.94873641 30.36340683 -10.9375 30.375 C-7.35979844 30.24039975 -7.35979844 30.24039975 -4.0625 29 C-3.68265956 26.15010169 -3.68265956 26.15010169 -5.0625 23 C-7.73186448 21.47592212 -10.47323218 20.37166042 -13.31640625 19.20703125 C-16.80505377 17.67361435 -18.89054322 16.14559258 -21.0625 13 C-21.6875 9.5 -21.6875 9.5 -21.0625 6 C-15.38261015 -1.09986231 -8.55778856 -2.79437994 0 0 Z " fill="#0B0808" transform="translate(1386.0625,489)"/>
<path d="M0 0 C2.58203125 1.0859375 2.58203125 1.0859375 3.54931641 2.71777344 C4.44069835 4.94126747 5.18599162 7.17267231 5.89453125 9.4609375 C6.15814453 10.24210937 6.42175781 11.02328125 6.69335938 11.828125 C7.76500034 15.07923318 8.58203125 17.63647846 8.58203125 21.0859375 C13.88841225 18.66097844 15.90048001 14.87696878 18.70703125 10.0234375 C19.55793602 8.57076675 20.41449291 7.12138828 21.27734375 5.67578125 C21.83446045 4.71466431 21.83446045 4.71466431 22.40283203 3.73413086 C23.58203125 2.0859375 23.58203125 2.0859375 26.58203125 0.0859375 C29.26953125 0.4609375 29.26953125 0.4609375 31.58203125 1.0859375 C28.42462239 6.23340335 25.25608913 11.2691699 21.55078125 16.0390625 C14.13388967 25.71592059 10.88573693 32.92313037 9.58203125 45.0859375 C9.25203125 45.7459375 8.92203125 46.4059375 8.58203125 47.0859375 C6.60203125 47.0859375 4.62203125 47.0859375 2.58203125 47.0859375 C2.65421875 46.50328125 2.72640625 45.920625 2.80078125 45.3203125 C3.11119348 42.57833784 3.35346947 39.83593479 3.58203125 37.0859375 C3.67355469 36.17070313 3.76507812 35.25546875 3.859375 34.3125 C4.30892356 26.3083427 2.11593926 20.19799897 -0.91015625 12.9453125 C-2.50854438 9.06837109 -3.4829995 5.17075463 -4.41796875 1.0859375 C-2.41796875 0.0859375 -2.41796875 0.0859375 0 0 Z " fill="#0A0808" transform="translate(763.41796875,477.9140625)"/>
<path d="M0 0 C0 1.65 0 3.3 0 5 C-1.175625 5.433125 -1.175625 5.433125 -2.375 5.875 C-5.09671632 6.84912254 -5.09671632 6.84912254 -7 9 C-7.64767793 11.57061311 -7.64767793 11.57061311 -8 14 C-5.03 14.495 -5.03 14.495 -2 15 C-2.33 16.65 -2.66 18.3 -3 20 C-5.31 20 -7.62 20 -10 20 C-10.11069824 20.76143311 -10.22139648 21.52286621 -10.33544922 22.30737305 C-10.84227268 25.76838133 -11.35853512 29.22791788 -11.875 32.6875 C-12.04902344 33.88568359 -12.22304687 35.08386719 -12.40234375 36.31835938 C-12.57636719 37.47529297 -12.75039062 38.63222656 -12.9296875 39.82421875 C-13.08679199 40.88729248 -13.24389648 41.95036621 -13.40576172 43.0456543 C-13.98828309 45.94174762 -14.64721053 48.37252328 -16 51 C-17.485 51.495 -17.485 51.495 -19 52 C-19.99 51.34 -20.98 50.68 -22 50 C-20.66193488 39.92515677 -18.94274694 29.97276765 -17 20 C-18.32 19.67 -19.64 19.34 -21 19 C-20.67 17.68 -20.34 16.36 -20 15 C-19.38125 14.95875 -18.7625 14.9175 -18.125 14.875 C-17.42375 14.58625 -16.7225 14.2975 -16 14 C-15.30562253 12.00945124 -14.64389782 10.00744615 -14 8 C-10.26354746 2.30827122 -6.86529665 -0.38140537 0 0 Z " fill="#0A0707" transform="translate(1167,474)"/>
<path d="M0 0 C1.4540625 0.0309375 1.4540625 0.0309375 2.9375 0.0625 C2.6075 2.7025 2.2775 5.3425 1.9375 8.0625 C4.9075 8.3925 7.8775 8.7225 10.9375 9.0625 C10.2775 10.7125 9.6175 12.3625 8.9375 14.0625 C5.9675 14.0625 2.9975 14.0625 -0.0625 14.0625 C-1.78821198 26.51274623 -1.78821198 26.51274623 -2.0625 39.0625 C0.2475 39.7225 2.5575 40.3825 4.9375 41.0625 C4.6075 42.3825 4.2775 43.7025 3.9375 45.0625 C-0.35835623 46.32598713 -2.97445995 45.83990872 -7.0625 44.0625 C-8.75 42.84765625 -8.75 42.84765625 -10.0625 41.0625 C-10.67295957 32.07812759 -8.13135678 22.74128912 -6.0625 14.0625 C-7.3825 14.0625 -8.7025 14.0625 -10.0625 14.0625 C-10.0625 12.4125 -10.0625 10.7625 -10.0625 9.0625 C-8.4125 8.7325 -6.7625 8.4025 -5.0625 8.0625 C-4.918125 6.928125 -4.77375 5.79375 -4.625 4.625 C-3.90732759 0.07974138 -3.90732759 0.07974138 0 0 Z " fill="#0B0808" transform="translate(1505.0625,479.9375)"/>
<path d="M0 0 C1.98 0 3.96 0 6 0 C5.67 2.64 5.34 5.28 5 8 C6.670625 7.9690625 6.670625 7.9690625 8.375 7.9375 C12 8 12 8 14 9 C13.67 10.65 13.34 12.3 13 14 C10.03 14 7.06 14 4 14 C3.49521191 17.06178017 2.99601107 20.12429649 2.5 23.1875 C2.28537109 24.48397461 2.28537109 24.48397461 2.06640625 25.80664062 C1.40685738 29.90526577 0.79290734 33.83226024 1 38 C3.31 38.66 5.62 39.32 8 40 C7.505 42.475 7.505 42.475 7 45 C2.99068358 46.60372657 -0.05823382 45.38691773 -4 44 C-6.73519022 41.26480978 -6.72498299 39.88408633 -7 36 C-6.54876836 32.16856642 -5.81646729 28.40703656 -5.0625 24.625 C-4.76956055 23.09166016 -4.76956055 23.09166016 -4.47070312 21.52734375 C-3.98961701 19.01630891 -3.49914511 16.50749632 -3 14 C-4.32 13.67 -5.64 13.34 -7 13 C-6.75 11.125 -6.75 11.125 -6 9 C-5.0409375 8.5978125 -5.0409375 8.5978125 -4.0625 8.1875 C-1.57546681 7.05610979 -1.57546681 7.05610979 -0.75 3.375 C-0.5025 2.26125 -0.255 1.1475 0 0 Z " fill="#0A0707" transform="translate(1218,480)"/>
<path d="M0 0 C1.98 0 3.96 0 6 0 C5.67 2.64 5.34 5.28 5 8 C6.27875 7.979375 7.5575 7.95875 8.875 7.9375 C12.75 7.875 12.75 7.875 15 9 C14.125 12.875 14.125 12.875 13 14 C11.31391034 14.07205511 9.62499341 14.08386068 7.9375 14.0625 C7.01839844 14.05347656 6.09929687 14.04445313 5.15234375 14.03515625 C4.44207031 14.02355469 3.73179688 14.01195312 3 14 C1.27428802 26.45024623 1.27428802 26.45024623 1 39 C3.31 39.66 5.62 40.32 8 41 C7.67 42.32 7.34 43.64 7 45 C2.71201317 46.2611726 0.05973624 45.85335785 -4 44 C-6.00597243 41.88258465 -6.94717448 40.66720924 -7.1796875 37.73046875 C-6.22048146 29.72478761 -4.6905575 21.87863591 -3 14 C-4.32 14 -5.64 14 -7 14 C-7 12.35 -7 10.7 -7 9 C-6.21625 8.814375 -5.4325 8.62875 -4.625 8.4375 C-1.60623658 7.16038373 -1.60623658 7.16038373 -0.6875 3.375 C-0.460625 2.26125 -0.23375 1.1475 0 0 Z " fill="#0A0707" transform="translate(1109,480)"/>
<path d="M0 0 C2.31 0 4.62 0 7 0 C6.34 2.64 5.68 5.28 5 8 C6.670625 7.9690625 6.670625 7.9690625 8.375 7.9375 C12 8 12 8 14 9 C13.67 10.65 13.34 12.3 13 14 C10.03 14 7.06 14 4 14 C2.91553021 21.99138419 1.84433135 29.97885214 1 38 C3.31 38.99 5.62 39.98 8 41 C7.67 42.32 7.34 43.64 7 45 C3.34979025 46.21673658 1.96107078 45.98572595 -1.75 44.625 C-5 43 -5 43 -6 42 C-6.44447447 36.11846574 -6.16609008 30.64755616 -4.51171875 24.9921875 C-3.58699552 21.39211996 -3.32502671 17.69504045 -3 14 C-4.32 13.67 -5.64 13.34 -7 13 C-6.75 11.125 -6.75 11.125 -6 9 C-5.0409375 8.5978125 -5.0409375 8.5978125 -4.0625 8.1875 C-1.57546681 7.05610979 -1.57546681 7.05610979 -0.75 3.375 C-0.5025 2.26125 -0.255 1.1475 0 0 Z " fill="#0A0707" transform="translate(1406,480)"/>
<path d="M0 0 C0.78375 0.33 1.5675 0.66 2.375 1 C5.37078934 2.14125308 6.04476075 1.95610682 9 1 C11.33094534 0.6503582 13.66404762 0.31445513 16 0 C15.67 1.98 15.34 3.96 15 6 C13.33984375 6.32552083 11.6796875 6.65104167 10.01953125 6.9765625 C6.75981487 8.6284884 4.74703781 10.8598717 3 14 C1.95897533 17.70405263 1.44103765 21.43998111 0.9375 25.25 C0.67134115 27.2366402 0.38952034 29.22126381 0.08984375 31.203125 C-0.02496338 32.07614258 -0.13977051 32.94916016 -0.25805664 33.84863281 C-1 36 -1 36 -2.88061523 37.36230469 C-5 38 -5 38 -8 37 C-8.2092712 32.18676245 -7.72669676 27.9394001 -6.703125 23.23828125 C-6.11992665 20.55232885 -5.57558689 17.86491775 -5.046875 15.16796875 C-4.69816706 13.42442907 -4.34920629 11.68093994 -4 9.9375 C-3.8340332 9.07930664 -3.66806641 8.22111328 -3.49707031 7.33691406 C-3.33303711 6.53350586 -3.16900391 5.73009766 -3 4.90234375 C-2.855625 4.17523193 -2.71125 3.44812012 -2.5625 2.69897461 C-2.376875 2.13831299 -2.19125 1.57765137 -2 1 C-1.34 0.67 -0.68 0.34 0 0 Z " fill="#0A0708" transform="translate(888,488)"/>
<path d="M0 0 C0.66 0.226875 1.32 0.45375 2 0.6875 C4.61147724 1.09554332 5.7038891 0.21980892 8 -1 C9.32 -1 10.64 -1 12 -1 C12 0.65 12 2.3 12 4 C11.38511719 4.25394531 10.77023437 4.50789063 10.13671875 4.76953125 C8.92435547 5.28580078 8.92435547 5.28580078 7.6875 5.8125 C6.48673828 6.31716797 6.48673828 6.31716797 5.26171875 6.83203125 C2.35086748 8.33521696 0.45416766 9.7357442 -0.67602539 12.88183594 C-0.81516357 13.57567383 -0.95430176 14.26951172 -1.09765625 14.984375 C-1.25943359 15.75523437 -1.42121094 16.52609375 -1.58789062 17.3203125 C-1.74451172 18.12210937 -1.90113281 18.92390625 -2.0625 19.75 C-2.38467802 21.32854289 -2.7088713 22.9066759 -3.03515625 24.484375 C-3.26936279 25.62229492 -3.26936279 25.62229492 -3.50830078 26.78320312 C-4.20017392 29.90247227 -5.07981677 32.94090199 -6 36 C-7.98 36.495 -7.98 36.495 -10 37 C-12.52732689 33.23037808 -11.90021573 30.5020589 -11.13671875 26.15234375 C-11.0252803 25.49923721 -10.91384186 24.84613068 -10.79902649 24.17323303 C-10.44063052 22.09233501 -10.06405689 20.01517969 -9.6875 17.9375 C-9.44482443 16.53600406 -9.20327552 15.13431253 -8.96289062 13.73242188 C-7.20399587 3.61198761 -7.20399587 3.61198761 -6 0 C-3.45555769 -1.27222115 -2.67379418 -0.78641005 0 0 Z " fill="#100C0C" transform="translate(1632,489)"/>
<path d="M0 0 C0.7425 0.350625 1.485 0.70125 2.25 1.0625 C5.3106211 2.10589356 6.02564402 1.96229164 9 1 C11.33094534 0.6503582 13.66404762 0.31445513 16 0 C16 1.65 16 3.3 16 5 C15.39671875 5.24234375 14.7934375 5.4846875 14.171875 5.734375 C12.97304687 6.23710937 12.97304687 6.23710937 11.75 6.75 C10.96109375 7.07484375 10.1721875 7.3996875 9.359375 7.734375 C6.43323804 9.30402463 4.95701603 10.26353005 3 13 C1.79929949 17.62767973 1.28168099 22.37707378 0.66601562 27.11132812 C-0.46249688 34.55354496 -0.46249688 34.55354496 -3.62890625 37.18359375 C-4.41136719 37.45300781 -5.19382812 37.72242188 -6 38 C-8.55830908 34.20151504 -7.90853541 31.32974273 -7.20703125 26.93359375 C-7.0469886 25.92063988 -7.0469886 25.92063988 -6.88371277 24.88722229 C-6.65527286 23.46325654 -6.42037076 22.0403144 -6.17944336 20.6184082 C-5.81362153 18.44416575 -5.47482994 16.26689328 -5.13867188 14.08789062 C-4.91306841 12.70286178 -4.68590697 11.31808562 -4.45703125 9.93359375 C-4.25053955 8.67603271 -4.04404785 7.41847168 -3.83129883 6.12280273 C-3.01688517 3.06342972 -2.47886894 1.87665542 0 0 Z " fill="#0A0708" transform="translate(1475,488)"/>
<path d="M0 0 C0 0.66 0 1.32 0 2 C0.53109375 1.7834375 1.0621875 1.566875 1.609375 1.34375 C2.31578125 1.0653125 3.0221875 0.786875 3.75 0.5 C4.79414062 0.08234375 4.79414062 0.08234375 5.859375 -0.34375 C8 -1 8 -1 12 -1 C11.67 0.98 11.34 2.96 11 5 C7.37 5.99 3.74 6.98 0 8 C-1.50206285 14.47042457 -2.76651696 20.96647854 -3.9465332 27.50195312 C-4.48066051 30.42114393 -5.05996746 33.17990239 -6 36 C-7.9375 36.75 -7.9375 36.75 -10 37 C-10.66 36.67 -11.32 36.34 -12 36 C-11.85915204 34.20793453 -11.71216299 32.41635083 -11.5625 30.625 C-11.48128906 29.62726562 -11.40007813 28.62953125 -11.31640625 27.6015625 C-11 25 -11 25 -10 23 C-9.72563318 21.51773683 -9.49191395 20.02780556 -9.28125 18.53515625 C-9.15363281 17.65279297 -9.02601563 16.77042969 -8.89453125 15.86132812 C-8.76433594 14.93771484 -8.63414062 14.01410156 -8.5 13.0625 C-8.24208958 11.24052888 -7.98177372 9.41889623 -7.71875 7.59765625 C-7.60466797 6.78820557 -7.49058594 5.97875488 -7.37304688 5.14477539 C-7 3 -7 3 -6 0 C-3.50907189 -1.24546405 -2.58919267 -0.7767578 0 0 Z " fill="#0A0808" transform="translate(982,489)"/>
<path d="M0 0 C1.32 0.33 2.64 0.66 4 1 C4 1.66 4 2.32 4 3 C4.60328125 2.77183594 5.2065625 2.54367187 5.828125 2.30859375 C6.62734375 2.02113281 7.4265625 1.73367188 8.25 1.4375 C9.03890625 1.14746094 9.8278125 0.85742188 10.640625 0.55859375 C13.19103452 -0.04522837 14.55322229 0.1526068 17 1 C16.375 3.375 16.375 3.375 15 6 C12.1875 7.0625 12.1875 7.0625 9 8 C4.86926837 10.81640793 2.58850081 13.21733568 1.54516602 18.15063477 C1.44905029 18.90658936 1.35293457 19.66254395 1.25390625 20.44140625 C1.13853516 21.27220703 1.02316406 22.10300781 0.90429688 22.95898438 C0.67599363 24.69800282 0.4520506 26.43759911 0.23242188 28.17773438 C0.11576172 29.00724609 -0.00089844 29.83675781 -0.12109375 30.69140625 C-0.2183374 31.44623291 -0.31558105 32.20105957 -0.41577148 32.97875977 C-1.10862268 35.37579908 -2.1226516 36.4011297 -4 38 C-5.32 37.34 -6.64 36.68 -8 36 C-7.35559876 31.83529407 -6.69802499 27.67294025 -6.02856445 23.51220703 C-5.80299253 22.09870911 -5.58092838 20.68464649 -5.36254883 19.27001953 C-5.04665727 17.22787772 -4.71789046 15.18815024 -4.38671875 13.1484375 C-4.19295654 11.92302246 -3.99919434 10.69760742 -3.79956055 9.43505859 C-2.98207639 5.92299689 -1.74085978 3.14491476 0 0 Z " fill="#0A0707" transform="translate(1284,488)"/>
<path d="M0 0 C-1.94507974 18.02302606 -1.94507974 18.02302606 -4 26 C-4.15339844 26.72832031 -4.30679688 27.45664062 -4.46484375 28.20703125 C-5.88851713 34.73710337 -5.88851713 34.73710337 -9 37 C-9.99 36.67 -10.98 36.34 -12 36 C-12.21635596 29.15338088 -11.44945932 23.00733824 -10.0625 16.3125 C-9.69872437 14.4961927 -9.33543011 12.6797889 -8.97265625 10.86328125 C-8.80008301 10.0223291 -8.62750977 9.18137695 -8.44970703 8.31494141 C-8.0699907 6.36028871 -7.77347591 4.38974733 -7.49609375 2.41796875 C-7.25052734 1.22107422 -7.25052734 1.22107422 -7 0 C-4.3333581 -1.33332095 -2.83319697 -0.67102033 0 0 Z " fill="#0A0808" transform="translate(1007,489)"/>
<path d="M0 0 C0.99 0.33 1.98 0.66 3 1 C1.11564921 5.04824813 -1.26301317 8.78190113 -3.625 12.5625 C-4.0686792 13.27341797 -4.5123584 13.98433594 -4.96948242 14.71679688 C-8.19270777 19.83145083 -11.62139657 24.74177905 -15.24609375 29.58203125 C-16.92049947 31.89039904 -18.41102686 34.2418539 -19.875 36.6875 C-20.57625 37.780625 -21.2775 38.87375 -22 40 C-22.66 40 -23.32 40 -24 40 C-24.268125 40.763125 -24.53625 41.52625 -24.8125 42.3125 C-25.95134505 44.88988618 -26.81416671 46.26954864 -29 48 C-29.66 48 -30.32 48 -31 48 C-31.99 48.66 -32.98 49.32 -34 50 C-32.2183426 46.09593105 -29.82745594 42.61056445 -27.4375 39.0625 C-26.99059814 38.39645752 -26.54369629 37.73041504 -26.08325195 37.04418945 C-17.64924338 24.50432707 -8.88147258 12.22518292 0 0 Z " fill="#110B0C" transform="translate(541,142)"/>
<path d="M0 0 C1.9375 0.8125 1.9375 0.8125 4 2 C4.33 2.99 4.66 3.98 5 5 C4.01 6.485 4.01 6.485 3 8 C0.5 8.375 0.5 8.375 -2 8 C-2.66 7.01 -3.32 6.02 -4 5 C-2.68 3.35 -1.36 1.7 0 0 Z " fill="#0D090A" transform="translate(1005,474)"/>
<path d="M0 0 C1.32 0 2.64 0 4 0 C2.52410328 4.42769017 0.26930159 8.6336865 -3 12 C-3.99 12 -4.98 12 -6 12 C-6 8.45162603 -5.16095215 7.24987942 -3.25 4.3125 C-2.73953125 3.50425781 -2.2290625 2.69601563 -1.703125 1.86328125 C-1.14109375 1.24839844 -0.5790625 0.63351563 0 0 Z " fill="#120E0E" transform="translate(549,130)"/>
<path d="M0 0 C-1.45076705 4.11050664 -3.34245725 7.53714127 -6 11 C-6.99 11 -7.98 11 -9 11 C-9.99 11.495 -9.99 11.495 -11 12 C-5.46153846 0 -5.46153846 0 0 0 Z " fill="#151010" transform="translate(561,118)"/>
<path d="M0 0 C0 0.99 0 1.98 0 3 C-2.64 2.67 -5.28 2.34 -8 2 C-7.67 1.34 -7.34 0.68 -7 0 C-2.52459016 -1.26229508 -2.52459016 -1.26229508 0 0 Z " fill="#191315" transform="translate(227,190)"/>
</svg>
